# xmcd CD database file
#
# Track frame offsets:
#	150
#	23529
#	43595
#	64260
#	83415
#	107609
#	128242
#	165023
#	190082
#	207806
#	225385
#	243282
#	259763
#	288268
#
# Disc length: 4065 seconds
#
# Revision: 0
# Processed by: cddbd v1.5PL3 Copyright (c) Steve Scherf et al.
# Submitted via: CDex 1.51
#
DISCID=a40fdf0e
DTITLE=Richard Blues - Richard Blues
DYEAR=2000
DGENRE=Blues
TTITLE0=Kidney Stew
TTITLE1=Night Nurse
TTITLE2=Cross Roads
TTITLE3=Fade Away
TTITLE4=Little Queenie
TTITLE5=Born under a bad sign
TTITLE6=Need your love so bad
TTITLE7=Don't wait for tomorrow
TTITLE8=Right girl wrong town
TTITLE9=Killing Floor
TTITLE10=I got a woman
TTITLE11=Johhny B Goode
TTITLE12=Unchain my heart
TTITLE13=Red House
EXTD=YEAR: 2000
EXTT0=
EXTT1=
EXTT2=
EXTT3=
EXTT4=
EXTT5=
EXTT6=
EXTT7=
EXTT8=
EXTT9=
EXTT10=
EXTT11=
EXTT12=
EXTT13=
PLAYORDER=
